<svg xmlns="http://www.w3.org/2000/svg" viewBox="0 0 1400 950">
  <rect width="1400" height="950" fill="#F8FAFC"/>
  <text x="70" y="80" font-family="Arial, sans-serif" font-size="38" font-weight="700" fill="#0F172A">Free LLM APIs IR — Logo Pack v2</text>
  <rect x="70" y="125" width="600" height="245" rx="26" fill="#FFFFFF" stroke="#E2E8F0"/>
  <g transform="translate(105 135) scale(.7)"><g>
  <path d="M56 38V166C56 188.091 73.909 206 96 206H202"
        fill="none" stroke="#2563EB" stroke-width="26"
        stroke-linecap="round" stroke-linejoin="round"/>
  <path d="M112 116L158 80M112 116L174 140M112 116L126 170"
        fill="none" stroke="#06B6D4" stroke-width="8"
        stroke-linecap="round"/>
  <circle cx="112" cy="116" r="15" fill="#06B6D4"/>
  <circle cx="158" cy="80" r="13" fill="#06B6D4"/>
  <circle cx="174" cy="140" r="13" fill="#06B6D4"/>
  <circle cx="126" cy="170" r="13" fill="#06B6D4"/>
</g></g>
  <text x="320" y="245" font-family="Arial, sans-serif" font-size="54" font-weight="700" fill="#0F172A">Free LLM APIs</text>
  <text x="563" y="300" font-family="Arial, sans-serif" font-size="48" font-weight="700" fill="#2563EB">IR</text>

  <rect x="730" y="125" width="600" height="245" rx="26" fill="#0F172A"/>
  <g transform="translate(765 135) scale(.7)"><g>
  <path d="M56 38V166C56 188.091 73.909 206 96 206H202"
        fill="none" stroke="#38BDF8" stroke-width="26"
        stroke-linecap="round" stroke-linejoin="round"/>
  <path d="M112 116L158 80M112 116L174 140M112 116L126 170"
        fill="none" stroke="#06B6D4" stroke-width="8"
        stroke-linecap="round"/>
  <circle cx="112" cy="116" r="15" fill="#06B6D4"/>
  <circle cx="158" cy="80" r="13" fill="#06B6D4"/>
  <circle cx="174" cy="140" r="13" fill="#06B6D4"/>
  <circle cx="126" cy="170" r="13" fill="#06B6D4"/>
</g></g>
  <text x="980" y="245" font-family="Arial, sans-serif" font-size="54" font-weight="700" fill="#FFFFFF">Free LLM APIs</text>
  <text x="1223" y="300" font-family="Arial, sans-serif" font-size="48" font-weight="700" fill="#38BDF8">IR</text>

  <rect x="70" y="420" width="360" height="360" rx="38" fill="#FFFFFF" stroke="#E2E8F0"/>
  <g transform="translate(122 472)"><g>
  <path d="M56 38V166C56 188.091 73.909 206 96 206H202"
        fill="none" stroke="#2563EB" stroke-width="26"
        stroke-linecap="round" stroke-linejoin="round"/>
  <path d="M112 116L158 80M112 116L174 140M112 116L126 170"
        fill="none" stroke="#06B6D4" stroke-width="8"
        stroke-linecap="round"/>
  <circle cx="112" cy="116" r="15" fill="#06B6D4"/>
  <circle cx="158" cy="80" r="13" fill="#06B6D4"/>
  <circle cx="174" cy="140" r="13" fill="#06B6D4"/>
  <circle cx="126" cy="170" r="13" fill="#06B6D4"/>
</g></g>

  <rect x="510" y="420" width="360" height="360" rx="38" fill="#0F172A"/>
  <g transform="translate(562 472)"><g>
  <path d="M56 38V166C56 188.091 73.909 206 96 206H202"
        fill="none" stroke="#38BDF8" stroke-width="26"
        stroke-linecap="round" stroke-linejoin="round"/>
  <path d="M112 116L158 80M112 116L174 140M112 116L126 170"
        fill="none" stroke="#06B6D4" stroke-width="8"
        stroke-linecap="round"/>
  <circle cx="112" cy="116" r="15" fill="#06B6D4"/>
  <circle cx="158" cy="80" r="13" fill="#06B6D4"/>
  <circle cx="174" cy="140" r="13" fill="#06B6D4"/>
  <circle cx="126" cy="170" r="13" fill="#06B6D4"/>
</g></g>

  <rect x="950" y="420" width="360" height="360" rx="80" fill="#0F172A"/>
  <g transform="translate(1002 472)"><g>
  <path d="M56 38V166C56 188.091 73.909 206 96 206H202"
        fill="none" stroke="#38BDF8" stroke-width="26"
        stroke-linecap="round" stroke-linejoin="round"/>
  <path d="M112 116L158 80M112 116L174 140M112 116L126 170"
        fill="none" stroke="#06B6D4" stroke-width="8"
        stroke-linecap="round"/>
  <circle cx="112" cy="116" r="15" fill="#06B6D4"/>
  <circle cx="158" cy="80" r="13" fill="#06B6D4"/>
  <circle cx="174" cy="140" r="13" fill="#06B6D4"/>
  <circle cx="126" cy="170" r="13" fill="#06B6D4"/>
</g></g>

  <text x="70" y="875" font-family="Arial, sans-serif" font-size="23" fill="#64748B">Minimal • SVG • Responsive • Light/Dark • Favicon-ready</text>
</svg>